# xmcd
#
# Track frame offsets: 
#        150
#        28737
#        49122
#        68162
#        93997
#        115775
#        135935
#        166405
#        189462
#        219697
#
# Disc length: 3270 seconds
#
# Revision: 1
# Processed by: cddbd v1.5.2PL0 Copyright (c) Steve Scherf et al.
# Submitted via: ExactAudioCopy v0.99pb5
#
DISCID=860cc40a
DTITLE=Various Artist - Dem Ve Tuong Nho
DYEAR=1990
DGENRE=Hai ngoai
TTITLE0=Tuan Vu - Dem ve tuong nho
TTITLE1=Nhu Mai - Giot buon khong ten
TTITLE2=Nhat Linh - Tinh ngheo co nhau
TTITLE3=Son Tuyen - Ke chuyen trong dem
TTITLE4=Tuan Vu - Yeu tham
TTITLE5=Nhat Linh/ Xa nguoi minh yeu
TTITLE6=Nhu Mai - Nua dem thuong nho
TTITLE7=Tuan Vu - Em la tat ca
TTITLE8=Son Tuyen - Loi ta tu
TTITLE9=Nhat Linh - Con duong xua em di
EXTD=
EXTT0=
EXTT1=
EXTT2=
EXTT3=
EXTT4=
EXTT5=
EXTT6=
EXTT7=
EXTT8=
EXTT9=
PLAYORDER=
